STARTFONT 2.1
FONT -uknc-klad-medium-r-normal--8-80-75-75-c-80-iso10646-1
SIZE 8 75 75
FONTBOUNDINGBOX 8 8 0 0
STARTPROPERTIES 2
FONT_ASCENT 8
FONT_DESCENT 0
ENDPROPERTIES
CHARS 99
STARTCHAR U+0020
ENCODING 32
SWIDTH 1000 0
DWIDTH 8 0
BBX 8 8 0 0
BITMAP
00
00
00
00
00
00
00
00
ENDCHAR
STARTCHAR U+0021
ENCODING 33
SWIDTH 1000 0
DWIDTH 8 0
BBX 8 8 0 0
BITMAP
10
10
10
10
10
00
10
00
ENDCHAR
STARTCHAR U+0028
ENCODING 40
SWIDTH 1000 0
DWIDTH 8 0
BBX 8 8 0 0
BITMAP
21
42
82
82
82
83
42
21
ENDCHAR
STARTCHAR U+0029
ENCODING 41
SWIDTH 1000 0
DWIDTH 8 0
BBX 8 8 0 0
BITMAP
80
40
20
20
20
20
40
80
ENDCHAR
STARTCHAR U+002D
ENCODING 45
SWIDTH 1000 0
DWIDTH 8 0
BBX 8 8 0 0
BITMAP
00
00
00
00
FC
00
00
00
ENDCHAR
STARTCHAR U+0030
ENCODING 48
SWIDTH 1000 0
DWIDTH 8 0
BBX 8 8 0 0
BITMAP
78
84
8C
94
A4
C4
84
78
ENDCHAR
STARTCHAR U+0031
ENCODING 49
SWIDTH 1000 0
DWIDTH 8 0
BBX 8 8 0 0
BITMAP
20
60
A0
20
20
20
20
F8
ENDCHAR
STARTCHAR U+0032
ENCODING 50
SWIDTH 1000 0
DWIDTH 8 0
BBX 8 8 0 0
BITMAP
78
84
84
08
10
20
44
FC
ENDCHAR
STARTCHAR U+0033
ENCODING 51
SWIDTH 1000 0
DWIDTH 8 0
BBX 8 8 0 0
BITMAP
7E
04
08
1C
02
02
42
3C
ENDCHAR
STARTCHAR U+0034
ENCODING 52
SWIDTH 1000 0
DWIDTH 8 0
BBX 8 8 0 0
BITMAP
08
18
28
48
88
FC
08
08
ENDCHAR
STARTCHAR U+0035
ENCODING 53
SWIDTH 1000 0
DWIDTH 8 0
BBX 8 8 0 0
BITMAP
FC
80
80
F8
04
04
84
78
ENDCHAR
STARTCHAR U+0036
ENCODING 54
SWIDTH 1000 0
DWIDTH 8 0
BBX 8 8 0 0
BITMAP
78
84
80
F8
84
84
84
78
ENDCHAR
STARTCHAR U+0037
ENCODING 55
SWIDTH 1000 0
DWIDTH 8 0
BBX 8 8 0 0
BITMAP
FC
84
08
10
20
40
80
80
ENDCHAR
STARTCHAR U+0038
ENCODING 56
SWIDTH 1000 0
DWIDTH 8 0
BBX 8 8 0 0
BITMAP
3C
42
42
3C
42
42
42
3C
ENDCHAR
STARTCHAR U+0039
ENCODING 57
SWIDTH 1000 0
DWIDTH 8 0
BBX 8 8 0 0
BITMAP
3C
42
42
42
3E
02
42
3C
ENDCHAR
STARTCHAR U+003A
ENCODING 58
SWIDTH 1000 0
DWIDTH 8 0
BBX 8 8 0 0
BITMAP
00
30
30
00
00
30
30
00
ENDCHAR
STARTCHAR U+0041
ENCODING 65
SWIDTH 1000 0
DWIDTH 8 0
BBX 8 8 0 0
BITMAP
38
44
82
82
FE
82
82
00
ENDCHAR
STARTCHAR U+0042
ENCODING 66
SWIDTH 1000 0
DWIDTH 8 0
BBX 8 8 0 0
BITMAP
FC
82
82
FC
82
82
FC
00
ENDCHAR
STARTCHAR U+0043
ENCODING 67
SWIDTH 1000 0
DWIDTH 8 0
BBX 8 8 0 0
BITMAP
7C
82
80
80
80
82
7C
00
ENDCHAR
STARTCHAR U+0044
ENCODING 68
SWIDTH 1000 0
DWIDTH 8 0
BBX 8 8 0 0
BITMAP
F8
84
82
82
82
84
F8
00
ENDCHAR
STARTCHAR U+0045
ENCODING 69
SWIDTH 1000 0
DWIDTH 8 0
BBX 8 8 0 0
BITMAP
FE
80
80
F8
80
80
FE
00
ENDCHAR
STARTCHAR U+0046
ENCODING 70
SWIDTH 1000 0
DWIDTH 8 0
BBX 8 8 0 0
BITMAP
FE
80
80
F8
80
80
80
00
ENDCHAR
STARTCHAR U+0047
ENCODING 71
SWIDTH 1000 0
DWIDTH 8 0
BBX 8 8 0 0
BITMAP
7C
82
80
9C
82
82
7C
00
ENDCHAR
STARTCHAR U+0048
ENCODING 72
SWIDTH 1000 0
DWIDTH 8 0
BBX 8 8 0 0
BITMAP
82
82
82
FE
82
82
82
00
ENDCHAR
STARTCHAR U+0049
ENCODING 73
SWIDTH 1000 0
DWIDTH 8 0
BBX 8 8 0 0
BITMAP
7C
10
10
10
10
10
7C
00
ENDCHAR
STARTCHAR U+004A
ENCODING 74
SWIDTH 1000 0
DWIDTH 8 0
BBX 8 8 0 0
BITMAP
1E
08
08
08
88
88
70
00
ENDCHAR
STARTCHAR U+004B
ENCODING 75
SWIDTH 1000 0
DWIDTH 8 0
BBX 8 8 0 0
BITMAP
84
88
90
E0
90
88
84
00
ENDCHAR
STARTCHAR U+004C
ENCODING 76
SWIDTH 1000 0
DWIDTH 8 0
BBX 8 8 0 0
BITMAP
80
80
80
80
80
80
FE
00
ENDCHAR
STARTCHAR U+004D
ENCODING 77
SWIDTH 1000 0
DWIDTH 8 0
BBX 8 8 0 0
BITMAP
82
C6
AA
92
82
82
82
00
ENDCHAR
STARTCHAR U+004E
ENCODING 78
SWIDTH 1000 0
DWIDTH 8 0
BBX 8 8 0 0
BITMAP
82
C2
A2
92
8A
86
82
00
ENDCHAR
STARTCHAR U+004F
ENCODING 79
SWIDTH 1000 0
DWIDTH 8 0
BBX 8 8 0 0
BITMAP
7C
82
82
82
82
82
7C
00
ENDCHAR
STARTCHAR U+0050
ENCODING 80
SWIDTH 1000 0
DWIDTH 8 0
BBX 8 8 0 0
BITMAP
FC
82
82
FC
80
80
80
00
ENDCHAR
STARTCHAR U+0051
ENCODING 81
SWIDTH 1000 0
DWIDTH 8 0
BBX 8 8 0 0
BITMAP
7C
82
82
82
8A
84
7A
00
ENDCHAR
STARTCHAR U+0052
ENCODING 82
SWIDTH 1000 0
DWIDTH 8 0
BBX 8 8 0 0
BITMAP
FC
82
82
FC
90
88
84
00
ENDCHAR
STARTCHAR U+0053
ENCODING 83
SWIDTH 1000 0
DWIDTH 8 0
BBX 8 8 0 0
BITMAP
7C
82
80
7C
02
82
7C
00
ENDCHAR
STARTCHAR U+0054
ENCODING 84
SWIDTH 1000 0
DWIDTH 8 0
BBX 8 8 0 0
BITMAP
FE
10
10
10
10
10
10
00
ENDCHAR
STARTCHAR U+0055
ENCODING 85
SWIDTH 1000 0
DWIDTH 8 0
BBX 8 8 0 0
BITMAP
82
82
82
82
82
82
7C
00
ENDCHAR
STARTCHAR U+0056
ENCODING 86
SWIDTH 1000 0
DWIDTH 8 0
BBX 8 8 0 0
BITMAP
82
82
82
82
44
28
10
00
ENDCHAR
STARTCHAR U+0057
ENCODING 87
SWIDTH 1000 0
DWIDTH 8 0
BBX 8 8 0 0
BITMAP
82
82
82
92
AA
C6
82
00
ENDCHAR
STARTCHAR U+0058
ENCODING 88
SWIDTH 1000 0
DWIDTH 8 0
BBX 8 8 0 0
BITMAP
82
44
28
10
28
44
82
00
ENDCHAR
STARTCHAR U+0059
ENCODING 89
SWIDTH 1000 0
DWIDTH 8 0
BBX 8 8 0 0
BITMAP
82
44
28
10
10
10
10
00
ENDCHAR
STARTCHAR U+005A
ENCODING 90
SWIDTH 1000 0
DWIDTH 8 0
BBX 8 8 0 0
BITMAP
FE
04
08
10
20
40
FE
00
ENDCHAR
STARTCHAR U+0061
ENCODING 97
SWIDTH 1000 0
DWIDTH 8 0
BBX 8 8 0 0
BITMAP
00
78
02
7C
82
86
74
00
ENDCHAR
STARTCHAR U+0062
ENCODING 98
SWIDTH 1000 0
DWIDTH 8 0
BBX 8 8 0 0
BITMAP
80
80
BC
C2
82
C2
BC
00
ENDCHAR
STARTCHAR U+0063
ENCODING 99
SWIDTH 1000 0
DWIDTH 8 0
BBX 8 8 0 0
BITMAP
00
7C
82
80
80
82
7C
00
ENDCHAR
STARTCHAR U+0064
ENCODING 100
SWIDTH 1000 0
DWIDTH 8 0
BBX 8 8 0 0
BITMAP
02
02
7A
86
82
86
7A
00
ENDCHAR
STARTCHAR U+0065
ENCODING 101
SWIDTH 1000 0
DWIDTH 8 0
BBX 8 8 0 0
BITMAP
00
7C
82
FE
80
82
7C
00
ENDCHAR
STARTCHAR U+0066
ENCODING 102
SWIDTH 1000 0
DWIDTH 8 0
BBX 8 8 0 0
BITMAP
38
44
40
F0
40
40
40
00
ENDCHAR
STARTCHAR U+0067
ENCODING 103
SWIDTH 1000 0
DWIDTH 8 0
BBX 8 8 0 0
BITMAP
00
7A
86
82
86
7A
02
7C
ENDCHAR
STARTCHAR U+0068
ENCODING 104
SWIDTH 1000 0
DWIDTH 8 0
BBX 8 8 0 0
BITMAP
80
80
BC
C2
82
82
82
00
ENDCHAR
STARTCHAR U+0069
ENCODING 105
SWIDTH 1000 0
DWIDTH 8 0
BBX 8 8 0 0
BITMAP
10
00
30
10
10
10
3C
00
ENDCHAR
STARTCHAR U+006A
ENCODING 106
SWIDTH 1000 0
DWIDTH 8 0
BBX 8 8 0 0
BITMAP
08
00
18
08
08
88
88
70
ENDCHAR
STARTCHAR U+006B
ENCODING 107
SWIDTH 1000 0
DWIDTH 8 0
BBX 8 8 0 0
BITMAP
80
80
84
88
F0
88
84
00
ENDCHAR
STARTCHAR U+006C
ENCODING 108
SWIDTH 1000 0
DWIDTH 8 0
BBX 8 8 0 0
BITMAP
30
10
10
10
10
10
3C
00
ENDCHAR
STARTCHAR U+006D
ENCODING 109
SWIDTH 1000 0
DWIDTH 8 0
BBX 8 8 0 0
BITMAP
00
D8
AA
AA
AA
AA
AA
00
ENDCHAR
STARTCHAR U+006E
ENCODING 110
SWIDTH 1000 0
DWIDTH 8 0
BBX 8 8 0 0
BITMAP
00
BC
C2
82
82
82
82
00
ENDCHAR
STARTCHAR U+006F
ENCODING 111
SWIDTH 1000 0
DWIDTH 8 0
BBX 8 8 0 0
BITMAP
00
7C
82
82
82
82
7C
00
ENDCHAR
STARTCHAR U+0070
ENCODING 112
SWIDTH 1000 0
DWIDTH 8 0
BBX 8 8 0 0
BITMAP
00
BC
C2
82
C2
BC
80
80
ENDCHAR
STARTCHAR U+0071
ENCODING 113
SWIDTH 1000 0
DWIDTH 8 0
BBX 8 8 0 0
BITMAP
00
7A
86
82
86
7A
02
02
ENDCHAR
STARTCHAR U+0072
ENCODING 114
SWIDTH 1000 0
DWIDTH 8 0
BBX 8 8 0 0
BITMAP
00
BC
C2
80
80
80
80
00
ENDCHAR
STARTCHAR U+0073
ENCODING 115
SWIDTH 1000 0
DWIDTH 8 0
BBX 8 8 0 0
BITMAP
00
7C
80
7C
02
82
7C
00
ENDCHAR
STARTCHAR U+0074
ENCODING 116
SWIDTH 1000 0
DWIDTH 8 0
BBX 8 8 0 0
BITMAP
40
40
F0
40
40
44
38
00
ENDCHAR
STARTCHAR U+0075
ENCODING 117
SWIDTH 1000 0
DWIDTH 8 0
BBX 8 8 0 0
BITMAP
00
82
82
82
82
86
7A
00
ENDCHAR
STARTCHAR U+0076
ENCODING 118
SWIDTH 1000 0
DWIDTH 8 0
BBX 8 8 0 0
BITMAP
00
82
82
44
44
28
10
00
ENDCHAR
STARTCHAR U+0077
ENCODING 119
SWIDTH 1000 0
DWIDTH 8 0
BBX 8 8 0 0
BITMAP
00
82
AA
AA
AA
AA
54
00
ENDCHAR
STARTCHAR U+0078
ENCODING 120
SWIDTH 1000 0
DWIDTH 8 0
BBX 8 8 0 0
BITMAP
00
82
44
38
38
44
82
00
ENDCHAR
STARTCHAR U+0079
ENCODING 121
SWIDTH 1000 0
DWIDTH 8 0
BBX 8 8 0 0
BITMAP
00
82
82
44
28
10
20
60
ENDCHAR
STARTCHAR U+007A
ENCODING 122
SWIDTH 1000 0
DWIDTH 8 0
BBX 8 8 0 0
BITMAP
00
FE
08
10
20
40
FE
00
ENDCHAR
STARTCHAR U+0410
ENCODING 1040
SWIDTH 1000 0
DWIDTH 8 0
BBX 8 8 0 0
BITMAP
30
48
84
84
FC
84
84
84
ENDCHAR
STARTCHAR U+0411
ENCODING 1041
SWIDTH 1000 0
DWIDTH 8 0
BBX 8 8 0 0
BITMAP
FC
80
80
F8
84
84
F8
00
ENDCHAR
STARTCHAR U+0413
ENCODING 1043
SWIDTH 1000 0
DWIDTH 8 0
BBX 8 8 0 0
BITMAP
FC
84
80
80
80
80
80
80
ENDCHAR
STARTCHAR U+0417
ENCODING 1047
SWIDTH 1000 0
DWIDTH 8 0
BBX 8 8 0 0
BITMAP
78
84
04
38
04
04
84
78
ENDCHAR
STARTCHAR U+041A
ENCODING 1050
SWIDTH 1000 0
DWIDTH 8 0
BBX 8 8 0 0
BITMAP
21
22
24
38
24
22
21
20
ENDCHAR
STARTCHAR U+041D
ENCODING 1053
SWIDTH 1000 0
DWIDTH 8 0
BBX 8 8 0 0
BITMAP
84
84
84
FC
84
84
84
84
ENDCHAR
STARTCHAR U+041F
ENCODING 1055
SWIDTH 1000 0
DWIDTH 8 0
BBX 8 8 0 0
BITMAP
FC
84
84
84
84
84
84
84
ENDCHAR
STARTCHAR U+0420
ENCODING 1056
SWIDTH 1000 0
DWIDTH 8 0
BBX 8 8 0 0
BITMAP
7C
42
42
42
7C
40
40
40
ENDCHAR
STARTCHAR U+0421
ENCODING 1057
SWIDTH 1000 0
DWIDTH 8 0
BBX 8 8 0 0
BITMAP
78
84
80
80
80
80
84
78
ENDCHAR
STARTCHAR U+0423
ENCODING 1059
SWIDTH 1000 0
DWIDTH 8 0
BBX 8 8 0 0
BITMAP
42
42
42
42
3E
02
42
3C
ENDCHAR
STARTCHAR U+0428
ENCODING 1064
SWIDTH 1000 0
DWIDTH 8 0
BBX 8 8 0 0
BITMAP
00
00
3C
02
3E
42
42
3D
ENDCHAR
STARTCHAR U+0430
ENCODING 1072
SWIDTH 1000 0
DWIDTH 8 0
BBX 8 8 0 0
BITMAP
00
00
78
0C
7C
84
8C
74
ENDCHAR
STARTCHAR U+0432
ENCODING 1074
SWIDTH 1000 0
DWIDTH 8 0
BBX 8 8 0 0
BITMAP
00
00
7C
42
7C
42
42
7C
ENDCHAR
STARTCHAR U+0433
ENCODING 1075
SWIDTH 1000 0
DWIDTH 8 0
BBX 8 8 0 0
BITMAP
00
00
FC
84
80
80
80
80
ENDCHAR
STARTCHAR U+0434
ENCODING 1076
SWIDTH 1000 0
DWIDTH 8 0
BBX 8 8 0 0
BITMAP
00
00
1C
24
44
44
44
FE
ENDCHAR
STARTCHAR U+0435
ENCODING 1077
SWIDTH 1000 0
DWIDTH 8 0
BBX 8 8 0 0
BITMAP
00
00
3C
42
42
7E
40
3E
ENDCHAR
STARTCHAR U+0438
ENCODING 1080
SWIDTH 1000 0
DWIDTH 8 0
BBX 8 8 0 0
BITMAP
00
00
84
8C
94
A4
C4
84
ENDCHAR
STARTCHAR U+043A
ENCODING 1082
SWIDTH 1000 0
DWIDTH 8 0
BBX 8 8 0 0
BITMAP
00
00
21
22
24
3C
22
21
ENDCHAR
STARTCHAR U+043B
ENCODING 1083
SWIDTH 1000 0
DWIDTH 8 0
BBX 8 8 0 0
BITMAP
00
00
1C
24
44
44
44
84
ENDCHAR
STARTCHAR U+043C
ENCODING 1084
SWIDTH 1000 0
DWIDTH 8 0
BBX 8 8 0 0
BITMAP
00
00
82
C6
AA
92
82
82
ENDCHAR
STARTCHAR U+043D
ENCODING 1085
SWIDTH 1000 0
DWIDTH 8 0
BBX 8 8 0 0
BITMAP
00
00
42
42
42
7E
42
42
ENDCHAR
STARTCHAR U+043E
ENCODING 1086
SWIDTH 1000 0
DWIDTH 8 0
BBX 8 8 0 0
BITMAP
00
00
3C
42
42
42
42
3C
ENDCHAR
STARTCHAR U+043F
ENCODING 1087
SWIDTH 1000 0
DWIDTH 8 0
BBX 8 8 0 0
BITMAP
00
00
7E
42
42
42
42
42
ENDCHAR
STARTCHAR U+0440
ENCODING 1088
SWIDTH 1000 0
DWIDTH 8 0
BBX 8 8 0 0
BITMAP
00
00
78
44
44
78
40
40
ENDCHAR
STARTCHAR U+0441
ENCODING 1089
SWIDTH 1000 0
DWIDTH 8 0
BBX 8 8 0 0
BITMAP
00
00
3C
42
40
40
42
3C
ENDCHAR
STARTCHAR U+0442
ENCODING 1090
SWIDTH 1000 0
DWIDTH 8 0
BBX 8 8 0 0
BITMAP
00
00
7F
08
08
08
08
08
ENDCHAR
STARTCHAR U+0444
ENCODING 1092
SWIDTH 1000 0
DWIDTH 8 0
BBX 8 8 0 0
BITMAP
00
00
08
3E
49
49
49
3E
ENDCHAR
STARTCHAR U+0447
ENCODING 1095
SWIDTH 1000 0
DWIDTH 8 0
BBX 8 8 0 0
BITMAP
00
00
84
84
84
7C
04
04
ENDCHAR
STARTCHAR U+044B
ENCODING 1099
SWIDTH 1000 0
DWIDTH 8 0
BBX 8 8 0 0
BITMAP
00
00
41
41
79
45
45
79
ENDCHAR
STARTCHAR U+044C
ENCODING 1100
SWIDTH 1000 0
DWIDTH 8 0
BBX 8 8 0 0
BITMAP
00
00
00
00
FC
00
00
00
ENDCHAR
STARTCHAR U+044F
ENCODING 1103
SWIDTH 1000 0
DWIDTH 8 0
BBX 8 8 0 0
BITMAP
78
84
80
80
80
80
84
78
ENDCHAR
ENDFONT
